<svg xmlns="http://www.w3.org/2000/svg" xmlns:xlink="http://www.w3.org/1999/xlink" viewBox="0 0 24.05 22.93"><defs><style>.cls-calendar-1,.cls-calendar-2{fill:#fff;}.cls-calendar-2{opacity:0.39;}.cls-calendar-3{fill:none;stroke-miterlimit:10;stroke:url(#linear-gradient);}.cls-calendar-4{fill:url(#linear-gradient-2);}.cls-calendar-5{fill:url(#linear-gradient-3);}.cls-calendar-6{fill:url(#linear-gradient-4);}</style><linearGradient id="linear-gradient" x1="2.46" y1="1.36" x2="21.59" y2="23.84" gradientUnits="userSpaceOnUse"><stop offset="0.08" stop-color="#fff"/><stop offset="1" stop-color="#eaeaea"/></linearGradient><linearGradient id="linear-gradient-2" x1="6.26" y1="-0.81" x2="17.67" y2="12.6" xlink:href="#linear-gradient"/><linearGradient id="linear-gradient-3" x1="5.29" y1="-0.11" x2="7.98" y2="3.05" xlink:href="#linear-gradient"/><linearGradient id="linear-gradient-4" x1="15.52" y1="-0.11" x2="18.21" y2="3.05" xlink:href="#linear-gradient"/></defs><g id="Layer_2" data-name="Layer 2"><g id="Layer_1-2" data-name="Layer 1"><rect class="cls-calendar-1" x="5.28" y="10.59" width="2.94" height="2.94"/><rect class="cls-calendar-2" x="11.08" y="10.59" width="2.94" height="2.94"/><rect class="cls-calendar-2" x="16.89" y="10.59" width="2.94" height="2.94"/><rect class="cls-calendar-3" x="0.5" y="2.77" width="23.05" height="19.65" rx="1.69"/><path class="cls-calendar-4" d="M3,2.77H21.09a2.46,2.46,0,0,1,2.46,2.46V7.6a0,0,0,0,1,0,0H.5a0,0,0,0,1,0,0V5.24A2.46,2.46,0,0,1,3,2.77Z"/><rect class="cls-calendar-5" x="5.16" width="2.94" height="2.94"/><rect class="cls-calendar-6" x="15.39" width="2.94" height="2.94"/><rect class="cls-calendar-2" x="11.08" y="15.37" width="2.94" height="2.94"/><rect class="cls-calendar-2" x="16.89" y="15.37" width="2.94" height="2.94"/><rect class="cls-calendar-2" x="5.28" y="15.37" width="2.94" height="2.94"/></g></g></svg>
