<svg xmlns="http://www.w3.org/2000/svg" viewBox="0 0 68.538 68.538">
  <g id="Icon_feather-settings" data-name="Icon feather-settings" transform="translate(2.5 2.5)">
    <path id="Path_46" data-name="Path 46" d="M30.828,22.164A8.664,8.664,0,1,1,22.164,13.5,8.664,8.664,0,0,1,30.828,22.164Z" transform="translate(9.605 9.605)" fill="none" stroke="#fff" stroke-linecap="round" stroke-linejoin="round" stroke-width="5"/>
    <path id="Path_47" data-name="Path 47" d="M54.641,41.933a4.765,4.765,0,0,0,.953,5.256l.173.173a5.779,5.779,0,1,1-8.173,8.173l-.173-.173a4.8,4.8,0,0,0-8.144,3.408v.491a5.776,5.776,0,1,1-11.552,0V59A4.765,4.765,0,0,0,24.6,54.641a4.765,4.765,0,0,0-5.256.953l-.173.173A5.779,5.779,0,1,1,11,47.594l.173-.173a4.8,4.8,0,0,0-3.408-8.144H7.276a5.776,5.776,0,1,1,0-11.552h.26A4.765,4.765,0,0,0,11.9,24.6a4.765,4.765,0,0,0-.953-5.256l-.173-.173A5.779,5.779,0,1,1,18.944,11l.173.173a4.765,4.765,0,0,0,5.256.953H24.6a4.765,4.765,0,0,0,2.888-4.361V7.276a5.776,5.776,0,0,1,11.552,0v.26a4.8,4.8,0,0,0,8.144,3.408l.173-.173a5.779,5.779,0,1,1,8.173,8.173l-.173.173a4.765,4.765,0,0,0-.953,5.256V24.6a4.765,4.765,0,0,0,4.361,2.888h.491a5.776,5.776,0,1,1,0,11.552H59a4.765,4.765,0,0,0-4.361,2.888Z" transform="translate(-1.5 -1.5)" fill="none" stroke="#fff" stroke-linecap="round" stroke-linejoin="round" stroke-width="5"/>
  </g>
</svg>
